<?xml version="1.0" encoding="UTF-8"?>
<svg xmlns="http://www.w3.org/2000/svg" viewBox="0 0 192 192"><path d="M80 60v68h50.3l33.7 33.7V128h12V60H80zm88 60h-12v22.3L133.7 120H88V68h80v52zM58.3 96H72v8H61.7L28 137.7V104H16V32h100v20h-8V40H24v56h12v22.3L58.3 96zM36 76c2.2 0 4 1.8 4 4s-1.8 4-4 4-4-1.8-4-4 1.8-4 4-4zm16 0c2.2 0 4 1.8 4 4s-1.8 4-4 4-4-1.8-4-4 1.8-4 4-4zm20 4c0 2.2-1.8 4-4 4s-4-1.8-4-4 1.8-4 4-4 4 1.8 4 4zm51.3 18.9c0-3.9 1.3-6 5.1-8.6 3.1-2.1 4-3.3 4-5.4 0-2.4-1.7-4.1-4.3-4.1-3 0-5 1.6-6 5.1l-7.6-2c1-3.4 2.3-5.3 4.5-7 2.4-1.8 5.6-2.8 9.4-2.8 7.7 0 12.7 4.1 12.7 10.4 0 4-1.5 6.4-6.2 9.5-3.2 2.1-3.9 3.1-3.9 5.7v1h-7.9v-1.8zm8.9 10c0 2.8-2.3 5.1-5.2 5.1-2.9 0-5.1-2.3-5.1-5.1s2.3-5.1 5.2-5.1c2.8 0 5.1 2.3 5.1 5.1z" style="fill: #00884a;"/></svg>
