<?xml version="1.0" encoding="UTF-8"?>
<svg xmlns="http://www.w3.org/2000/svg" viewBox="0 0 192 192" width="32" height="32"><path d="M108 57.999c0-5.523 4.477-10 10-10s10 4.477 10 10-4.477 10-10 10-10-4.477-10-10zM96.196 74.82c-2.701-4.352-4.25-10.459-4.25-16.768 0-14.366 11.688-26.054 26.054-26.054s26.054 11.688 26.054 26.054c0 6.31-1.548 12.416-4.25 16.768-3.246 5.563-18.207 30.952-18.358 31.209L118 111.878l-3.446-5.848c-.151-.257-15.112-25.645-18.358-31.209zm3.75-16.768c0 4.805 1.147 9.509 3.068 12.582l.063.105c2.22 3.807 10.247 17.44 14.923 25.379 4.676-7.94 12.703-21.572 14.923-25.38l.063-.104c1.921-3.073 3.068-7.777 3.068-12.582 0-9.955-8.099-18.054-18.054-18.054s-18.054 8.099-18.054 18.054zm74.908 116.074a5.02 5.02 0 0 1-3.913 1.873H21.059a5.033 5.033 0 0 1-3.83-1.772 5.138 5.138 0 0 1-1.165-4.148L28.416 92.3c.395-2.49 2.496-4.3 4.994-4.3h61.245l4.707 8H64l99.293 52.956L152.08 96h-15.442l4.707-8h13.127c2.372 0 4.452 1.7 4.947 4.043l16.468 77.776a5.124 5.124 0 0 1-1.033 4.308zM49.6 168l29.32-54.976L47 96H35.93l-11.434 72H49.6zm48.604 0l26.95-30.318-39.175-20.893L58.667 168h39.537zm69.12 0l-1.867-8.823-33.042-17.623L108.907 168h58.418z" style="fill: #18837e;"/></svg>
