<?xml version="1.0" encoding="UTF-8"?>
<svg xmlns="http://www.w3.org/2000/svg" viewBox="0 0 192 192" width="32" height="32"><path d="M108.969 151.196C113.264 147.525 116 142.08 116 136c0-11.028-8.972-20-20-20s-20 8.972-20 20c0 6.08 2.736 11.525 7.031 15.196C74.106 155.882 68 165.24 68 176h8c0-11.028 8.972-20 20-20s20 8.972 20 20h8c0-10.761-6.106-20.118-15.031-24.804zM84 136c0-6.617 5.383-12 12-12s12 5.383 12 12-5.383 12-12 12-12-5.383-12-12zm-27.034 15.198C61.263 147.528 64 142.081 64 136c0-11.028-8.972-20-20-20s-20 8.972-20 20c0 6.08 2.736 11.525 7.031 15.196C22.106 155.882 16 165.24 16 176h8c0-11.028 8.972-20 20-20a20.03 20.03 0 0 1 17.503 10.313l6.995-3.881a28.02 28.02 0 0 0-11.532-11.234zM32 136c0-6.617 5.383-12 12-12s12 5.383 12 12-5.383 12-12 12-12-5.383-12-12zm128.969 15.196C165.264 147.525 168 142.08 168 136c0-11.028-8.972-20-20-20s-20 8.972-20 20c0 6.081 2.737 11.527 7.034 15.198a28.02 28.02 0 0 0-11.532 11.234l6.995 3.881A20.03 20.03 0 0 1 148 156c11.028 0 20 8.972 20 20h8c0-10.761-6.106-20.118-15.031-24.804zM136 136c0-6.617 5.383-12 12-12s12 5.383 12 12-5.383 12-12 12-12-5.383-12-12zm4.587-76h-12v-8h12v8zM66 60H54v-8h12v8zm34-32h-8V16h8v12zM72.938 38.61l-8.485-8.485 5.657-5.658 8.485 8.486-5.657 5.657zm47.992 36.663l8.485 8.485-5.657 5.657-8.485-8.485 5.657-5.657zm-1.883-36.663l-5.657-5.657 8.485-8.486 5.658 5.658-8.486 8.485zm-48.06 36.745l5.658 5.657-8.485 8.486-5.658-5.658 8.486-8.485zM88 88h16v8H88v-8zm-7.557-45.556A21.858 21.858 0 0 1 96 36.001a21.859 21.859 0 0 1 15.557 6.443c8.577 8.578 8.578 22.535 0 31.113-.636.636-1.221 1.135-1.787 1.618l-.545.467c-.183.159-.412.34-.67.537-.157.12-.38.293-.555.443V80h-8V76c0-3.339 2.581-5.32 3.683-6.167.11-.084.211-.159.292-.228l.606-.52c.487-.416.909-.775 1.319-1.186 5.458-5.458 5.458-14.34 0-19.798C103.256 45.457 99.74 44 96 44s-7.255 1.456-9.9 4.1c-5.458 5.46-5.458 14.34 0 19.8.41.41.832.769 1.32 1.184l.607.522c.08.068.181.143.29.227C89.42 70.681 92 72.662 92 76.001V80h-8v-3.378a13.38 13.38 0 0 0-.555-.443 14.598 14.598 0 0 1-.67-.537l-.544-.467c-.566-.483-1.152-.982-1.788-1.617-8.577-8.579-8.577-22.536 0-31.114z" style="fill: #00884a;"/></svg>
